HIERARCHY
ROOT Hips
{
	OFFSET 0.000000 0.000000 0.000000
	CHANNELS 6 Xposition Yposition Zposition Xrotation Yrotation Zrotation
	JOINT LeftUpLeg_virtual
	{
		OFFSET 0.000000 0.000000 0.000000
		CHANNELS 3 Xrotation Yrotation Zrotation
		JOINT LeftUpLeg
		{
			OFFSET 11.394100 -6.187798 -0.413800
			CHANNELS 3 Xrotation Yrotation Zrotation
			JOINT LeftLeg
			{
				OFFSET 0.430247 -32.302673 3.732800
				CHANNELS 3 Xrotation Yrotation Zrotation
				JOINT LeftFoot
				{
					OFFSET -0.430247 -48.264931 -6.423300
					CHANNELS 3 Xrotation Yrotation Zrotation
					JOINT LeftToeBase
					{
						OFFSET 4.230900 -16.068199 23.438400
						CHANNELS 3 Xrotation Yrotation Zrotation
						JOINT LeftToe_End
						{
							OFFSET 4.510700 0.695400 19.974600
							CHANNELS 3 Xrotation Yrotation Zrotation
							End Site
							{
								OFFSET 0 0 0
							}
						}
					}
				}
			}
		}
	}
	JOINT RightUpLeg_virtual
	{
		OFFSET 0.000000 0.000000 0.000000
		CHANNELS 3 Xrotation Yrotation Zrotation
		JOINT RightUpLeg
		{
			OFFSET -11.333700 -6.187798 -0.413800
			CHANNELS 3 Xrotation Yrotation Zrotation
			JOINT RightLeg
			{
				OFFSET -0.430392 -32.302628 3.733000
				CHANNELS 3 Xrotation Yrotation Zrotation
				JOINT RightFoot
				{
					OFFSET 0.430392 -48.264973 -6.423500
					CHANNELS 3 Xrotation Yrotation Zrotation
					JOINT RightToeBase
					{
						OFFSET -4.230900 -16.068199 23.438400
						CHANNELS 3 Xrotation Yrotation Zrotation
						JOINT RightToe_End
						{
							OFFSET -4.510700 0.695400 19.974600
							CHANNELS 3 Xrotation Yrotation Zrotation
							End Site
							{
								OFFSET 0 0 0
							}
						}
					}
				}
			}
		}
	}
	JOINT Spine_virtual
	{
		OFFSET 0.000000 0.000000 0.000000
		CHANNELS 3 Xrotation Yrotation Zrotation
		JOINT Spine
		{
			OFFSET -0.002400 12.777504 0.315300
			CHANNELS 3 Xrotation Yrotation Zrotation
			JOINT Spine1
			{
				OFFSET -0.002067 5.816869 0.032633
				CHANNELS 3 Xrotation Yrotation Zrotation
				JOINT Spine1_split
				{
					OFFSET -0.002067 5.816869 0.032633
					CHANNELS 3 Xrotation Yrotation Zrotation
					JOINT Spine2
					{
						OFFSET -0.002067 5.816869 0.032633
						CHANNELS 3 Xrotation Yrotation Zrotation
						JOINT Neck_virtual
						{
							OFFSET 0.000000 0.000000 0.000000
							CHANNELS 3 Xrotation Yrotation Zrotation
							JOINT Neck
							{
								OFFSET -0.003700 21.199493 -0.826900
								CHANNELS 3 Xrotation Yrotation Zrotation
								JOINT Head
								{
									OFFSET 0.000000 20.442200 4.834800
									CHANNELS 3 Xrotation Yrotation Zrotation
									JOINT HeadTop_End
									{
										OFFSET 0.000000 34.668396 4.968400
										CHANNELS 3 Xrotation Yrotation Zrotation
										End Site
										{
											OFFSET 0 0 0
										}
									}
								}
							}
						}
						JOINT LeftShoulder_virtual
						{
							OFFSET 0.000000 0.000000 0.000000
							CHANNELS 3 Xrotation Yrotation Zrotation
							JOINT LeftShoulder
							{
								OFFSET 3.288150 8.794197 -1.372250
								CHANNELS 3 Xrotation Yrotation Zrotation
								JOINT LeftShoulder_split
								{
									OFFSET 3.288150 8.794197 -1.372250
									CHANNELS 3 Xrotation Yrotation Zrotation
									JOINT LeftArm
									{
										OFFSET 11.953299 -2.279007 -0.146200
										CHANNELS 3 Xrotation Yrotation Zrotation
										JOINT LeftForeArm
										{
											OFFSET 18.448900 0.000000 0.000000
											CHANNELS 3 Xrotation Yrotation Zrotation
											JOINT LeftHand
											{
												OFFSET 29.527798 0.000000 0.000000
												CHANNELS 3 Xrotation Yrotation Zrotation
												End Site
												{
													OFFSET 0 0 0
												}
											}
										}
									}
								}
							}
						}
						JOINT RightShoulder_virtual
						{
							OFFSET 0.000000 0.000000 0.000000
							CHANNELS 3 Xrotation Yrotation Zrotation
							JOINT RightShoulder
							{
								OFFSET -3.249400 8.794197 -1.372250
								CHANNELS 3 Xrotation Yrotation Zrotation
								JOINT RightShoulder_split
								{
									OFFSET -3.249400 8.794197 -1.372250
									CHANNELS 3 Xrotation Yrotation Zrotation
									JOINT RightArm
									{
										OFFSET -11.953299 -2.279007 -0.146200
										CHANNELS 3 Xrotation Yrotation Zrotation
										JOINT RightForeArm
										{
											OFFSET -18.448900 0.000000 0.000000
											CHANNELS 3 Xrotation Yrotation Zrotation
											JOINT RightHand
											{
												OFFSET -29.527802 0.000000 0.000000
												CHANNELS 3 Xrotation Yrotation Zrotation
												End Site
												{
													OFFSET 0 0 0
												}
											}
										}
									}
								}
							}
						}
					}
				}
			}
		}
	}
}
MOTION
Frames: 7
Frame Time: 0.03333333
2.968426 90.542412 -20.992290 0.000000 0.000000 0.000000 0.448777 -42.290117 -0.397327 -52.516604 14.431944 39.941498 55.730761 5.815012 -1.090988 17.813581 3.779746 -18.673898 -17.570310 -2.977573 -8.919270 0.000000 0.000000 0.000000 1.435357 -41.511598 0.105667 -33.031567 -17.980628 -22.761573 38.137621 10.423102 -2.408330 -5.693708 -5.842326 31.438620 6.934529 7.992335 -31.753256 0.000000 0.000000 0.000000 2.982557 -36.347381 -0.087923 12.861606 0.980433 -4.354642 5.653232 0.533283 -2.928152 0.023314 -0.798092 0.206229 0.000000 0.000000 0.000000 8.048584 4.077518 -1.461109 -8.765402 3.554583 14.236789 -140.989817 -51.657366 -155.792722 0.000000 0.000000 0.000000 7.861657 1.197590 -1.614858 4.903980 1.777340 -9.988592 3.571227 -12.944392 -1.534143 18.497727 12.717031 -57.098879 -47.902395 -47.038560 -28.517047 0.000000 0.000000 0.000000 3.869618 -0.316732 -2.563442 -8.950434 9.611670 6.674688 -9.259529 -10.175622 4.095277 31.123222 16.123256 34.878344 -25.348686 44.395977 40.113216 0.000000 0.000000 0.000000 
2.948914 89.270096 -20.413387 0.000000 0.000000 0.000000 2.063628 -46.394576 1.433585 -49.902636 9.214157 35.147245 54.226156 4.060801 0.531746 12.769102 1.935352 -19.798850 -15.913941 -2.996725 -7.543633 0.000000 0.000000 0.000000 3.341766 -46.140465 2.375488 -36.873558 -14.636045 -23.028656 40.234076 12.395595 -3.387403 -6.578283 -5.623333 33.164626 8.739613 8.225191 -33.384862 0.000000 0.000000 0.000000 3.091721 -41.118173 1.219093 12.572279 1.815632 -4.823478 4.816503 0.701581 -3.160284 0.025548 -0.395944 0.106492 0.000000 0.000000 0.000000 7.253871 4.108530 -2.242953 -3.977494 4.213986 12.084269 -132.319260 -59.266965 -147.127315 0.000000 0.000000 0.000000 6.550300 1.206344 -1.981897 4.705022 0.090035 -12.967758 4.200316 -12.468577 -2.200511 4.788388 19.498966 -51.259118 -33.087407 -44.953897 -16.603218 0.000000 0.000000 0.000000 2.591229 -0.110575 -2.462399 -7.592329 10.804587 4.800274 -6.975695 -9.620196 3.549689 27.230207 14.931470 38.717651 -18.772128 38.905451 31.774744 0.000000 0.000000 0.000000 
2.866859 88.208221 -19.504177 0.000000 0.000000 0.000000 3.930516 -50.255692 3.851491 -46.642030 6.497611 30.902716 50.975631 2.325943 1.658046 6.725063 1.368414 -20.869616 -11.313873 -3.294036 -5.247607 0.000000 0.000000 0.000000 5.276713 -50.179009 4.976019 -40.046116 -11.252337 -22.989461 42.099135 13.731154 -4.361223 -7.117638 -6.370324 33.694863 10.166247 8.115305 -33.562846 0.000000 0.000000 0.000000 2.890218 -45.179321 2.404100 12.856468 2.885449 -5.301174 4.363461 0.916059 -3.078724 0.063828 -0.165340 0.035682 0.000000 0.000000 0.000000 6.684619 4.295341 -2.647733 0.612811 5.410721 9.010001 -115.687026 -66.372213 -129.935292 0.000000 0.000000 0.000000 5.472959 1.257916 -2.088428 4.293807 -1.834715 -15.488794 4.570456 -11.307616 -2.487894 -7.884152 23.707525 -44.896145 -20.487366 -41.925781 -7.225644 0.000000 0.000000 0.000000 1.397120 0.193724 -2.079288 -6.028554 11.768650 2.837053 -4.612434 -8.803946 3.766963 24.486928 12.158306 41.908637 -14.542473 34.907905 25.827553 0.000000 0.000000 0.000000 
2.850413 87.298256 -18.217808 0.000000 0.000000 0.000000 5.757274 -53.493403 6.367814 -43.595438 5.447364 27.854575 47.471095 0.551426 2.183239 2.218012 1.636357 -22.042223 -6.034516 -3.418430 -2.851936 0.000000 0.000000 0.000000 6.780793 -53.042675 7.165174 -41.905263 -8.607975 -22.960352 43.286840 14.613924 -5.206444 -7.221112 -7.616528 33.776167 10.650167 7.990104 -32.564163 0.000000 0.000000 0.000000 2.310243 -48.003379 3.263749 13.645780 3.996301 -5.623792 4.235761 1.061536 -2.789688 0.121296 -0.109695 0.062147 0.000000 0.000000 0.000000 6.353447 4.542011 -2.692736 4.629071 6.822244 5.322026 -87.014766 -69.907847 -100.464317 0.000000 0.000000 0.000000 4.748072 1.289231 -1.999601 3.796174 -3.761617 -17.411083 4.987751 -10.289986 -2.203960 -18.700513 25.448441 -39.235585 -10.775081 -37.919919 -0.637293 0.000000 0.000000 0.000000 0.342442 0.452983 -1.560910 -4.422567 12.263977 1.176676 -2.458944 -7.060116 4.501937 23.017891 8.427472 43.848862 -11.948298 32.956496 21.514225 0.000000 0.000000 0.000000 
2.868818 86.575851 -16.872803 0.000000 0.000000 0.000000 7.077782 -55.707453 8.316737 -41.512855 5.727339 26.309474 44.610308 -0.750172 1.964642 -0.059310 2.423386 -22.738320 -1.903984 -3.328069 -1.104299 0.000000 0.000000 0.000000 7.478638 -54.464977 8.393400 -42.138012 -7.239115 -23.127977 43.124967 15.357919 -5.832255 -6.989625 -8.712681 34.138529 9.980278 8.088004 -30.894759 0.000000 0.000000 0.000000 1.427691 -49.805200 3.574302 14.658132 4.998271 -5.536571 4.280477 1.107452 -2.409715 0.161984 -0.136701 0.112358 0.000000 0.000000 0.000000 6.234907 4.714035 -2.473627 7.917866 8.190873 1.531024 -57.111713 -66.921483 -70.219160 0.000000 0.000000 0.000000 4.322561 1.284000 -1.814328 3.344684 -5.417679 -18.818872 5.336042 -9.925370 -1.593335 -26.944620 25.278877 -35.138222 -4.668611 -33.759098 2.994466 0.000000 0.000000 0.000000 -0.421938 0.606692 -1.006780 -2.950228 12.128975 0.425610 -0.815646 -4.264843 4.689231 22.386884 4.391554 44.939236 -10.444593 32.988581 18.311425 0.000000 0.000000 0.000000 
2.964684 86.072037 -15.568092 0.000000 0.000000 0.000000 7.683743 -56.782948 9.259988 -41.035732 6.588478 26.168900 43.033750 -2.021679 1.571197 0.283387 2.789464 -23.779360 -0.310606 -3.097345 -0.369341 0.000000 0.000000 0.000000 7.386938 -54.664616 8.488855 -40.831889 -7.177517 -23.475980 41.674778 16.197358 -6.290059 -6.693558 -9.335129 34.977563 8.626586 8.341913 -29.085411 0.000000 0.000000 0.000000 0.745493 -50.710545 3.550142 15.620892 5.769224 -4.978320 4.375166 1.028092 -2.069442 0.220547 -0.252146 0.138260 0.000000 0.000000 0.000000 6.221857 4.730964 -2.136975 10.231681 9.343475 -1.890671 -39.543954 -59.463395 -53.569116 0.000000 0.000000 0.000000 4.057863 1.231005 -1.606853 3.012743 -6.626389 -19.908039 5.371355 -9.992655 -1.225528 -32.871826 24.232389 -32.557534 -1.696218 -31.019892 4.321815 0.000000 0.000000 0.000000 -0.835671 0.604159 -0.509486 -1.715329 11.302048 0.706163 0.446550 -1.318050 4.470650 22.093181 0.323320 45.606529 -9.671845 34.532859 15.912486 0.000000 0.000000 0.000000 
3.050541 85.812881 -14.466309 0.000000 0.000000 0.000000 7.632783 -56.603810 9.154060 -41.721452 7.673702 26.775986 42.309180 -3.502465 1.408742 1.845780 2.257622 -24.831551 -1.751441 -2.941202 0.233805 0.000000 0.000000 0.000000 6.762644 -54.048810 7.742139 -38.452186 -8.379001 -23.939668 39.576401 16.977513 -6.567119 -6.536786 -9.510781 35.905454 7.482119 8.627880 -27.576419 0.000000 0.000000 0.000000 0.603054 -50.854962 3.520975 16.354688 6.274564 -4.007428 4.393895 0.826595 -1.811731 0.291207 -0.360282 0.074826 0.000000 0.000000 0.000000 6.215819 4.601920 -1.789876 11.553173 10.055872 -4.579577 -30.859778 -51.361137 -47.705801 0.000000 0.000000 0.000000 3.846917 1.117677 -1.431456 2.806183 -7.437337 -20.903633 5.123969 -10.499684 -0.720832 -36.668335 23.297659 -30.863122 -1.043010 -30.413726 4.135046 0.000000 0.000000 0.000000 -0.991459 0.497341 -0.134848 -0.699507 9.838267 1.912403 1.483713 1.211211 3.630614 21.771289 -3.398086 46.256288 -9.391461 36.859249 14.148229 0.000000 0.000000 0.000000 
